<svg xmlns="http://www.w3.org/2000/svg" viewBox="0 0 64 64" role="img" aria-label="اللمعة الذهبية"><defs><linearGradient id="g" x1="0%" y1="0%" x2="100%" y2="100%"><stop offset="0" stop-color="#8e6f2c"/><stop offset=".38" stop-color="#e8d3a0"/><stop offset=".72" stop-color="#c9a55b"/><stop offset="1" stop-color="#8e6f2c"/></linearGradient></defs><rect width="64" height="64" rx="15" fill="#0d1428"/><g transform="translate(23.2 45.8) scale(0.46)"><path fill="#f7f3ea" d="M30.5 -4.0V-76.9L44.5 -80.0V0.0ZM21.6 20.0Q15.5 20.0 11.7 17.8Q7.9 15.6 5.9 12.3Q3.9 9.0 3.2 5.7Q2.5 2.3 2.5 0.0Q2.5 -4.4 4.3 -8.4Q6.2 -12.4 9.1 -15.6Q12.0 -18.7 15.1 -20.7Q15.3 -18.8 14.9 -17.1Q14.5 -15.4 13.1 -13.5Q14.2 -13.0 15.0 -11.6Q15.7 -10.1 16.0 -8.5Q16.3 -6.9 16.0 -5.7Q14.4 -7.2 12.8 -7.2Q11.2 -7.3 9.8 -6.4Q8.4 -5.4 7.5 -4.0Q6.6 -2.5 6.6 0.1Q6.6 4.0 8.4 7.2Q10.2 10.4 13.2 12.4Q16.2 14.3 19.8 14.3Q23.7 14.3 26.1 12.1Q28.4 9.8 29.5 5.7Q30.5 1.5 30.5 -4.0V-30.9L44.5 -34.0V0.0Q44.5 5.6 41.9 10.2Q39.3 14.7 34.2 17.4Q29.2 20.0 21.6 20.0Z"/></g><path fill="url(#g)" d="M46.5 11.0C46.5 16.3 47.7 17.5 53.0 17.5C47.7 17.5 46.5 18.7 46.5 24.0C46.5 18.7 45.3 17.5 40.0 17.5C45.3 17.5 46.5 16.3 46.5 11.0Z"/></svg>